<svg width="1254" height="1254" version="1.1" xmlns="http://www.w3.org/2000/svg" desc="Created with imagetracer.js version 1.2.6" ><path fill="rgb(10,25,15)" stroke="rgb(10,25,15)" stroke-width="1" opacity="0.23529411764705882" d="M 535.5 377 L 539 377.5 L 535.5 378 L 535.5 377 Z " /><path fill="rgb(10,25,15)" stroke="rgb(10,25,15)" stroke-width="1" opacity="0.23529411764705882" d="M 531.5 378 L 534 378.5 L 497.5 388 L 497.5 387 L 531.5 378 Z " /><path fill="rgb(10,25,15)" stroke="rgb(10,25,15)" stroke-width="1" opacity="0.23529411764705882" d="M 540.5 378 L 543 378.5 L 540.5 379 L 540.5 378 Z " /><path fill="rgb(10,25,15)" stroke="rgb(10,25,15)" stroke-width="1" opacity="0.23529411764705882" d="M 544.5 379 L 550 383.5 Q 552.7 386.8 552 393.5 Q 549.9 401.9 543.5 406 L 541.5 407 L 542.5 405 L 548 400.5 Q 551.2 396.2 551 388.5 L 547.5 382 L 544.5 379 Z " /><path fill="rgb(10,25,15)" stroke="rgb(10,25,15)" stroke-width="1" opacity="0.23529411764705882" d="M 489.5 389 L 492 389.5 L 476.5 394 L 476.5 393 L 489.5 389 Z " /><path fill="rgb(10,25,15)" stroke="rgb(10,25,15)" stroke-width="1" opacity="0.23529411764705882" d="M 472.5 394 L 475 394.5 L 472.5 395 L 472.5 394 Z " /><path fill="rgb(10,25,15)" stroke="rgb(10,25,15)" stroke-width="1" opacity="0.23529411764705882" d="M 468.5 395 L 471 395.5 L 460.5 399 L 460.5 398 L 468.5 395 Z " /><path fill="rgb(10,25,15)" stroke="rgb(10,25,15)" stroke-width="1" opacity="0.23529411764705882" d="M 456.5 399 L 459 399.5 L 456.5 400 L 456.5 399 Z " /><path fill="rgb(10,25,15)" stroke="rgb(10,25,15)" stroke-width="1" opacity="0.23529411764705882" d="M 452.5 400 L 455 400.5 L 444.5 404 L 444.5 403 L 452.5 400 Z " /><path fill="rgb(10,25,15)" stroke="rgb(10,25,15)" stroke-width="1" opacity="0.23529411764705882" d="M 440.5 404 L 443 404.5 L 409.5 416 L 406.5 416 L 342 440.5 L 343.5 443 L 344 441 L 346.5 440 L 344 443.5 L 345 446.5 L 343 446.5 L 342.5 448 L 341.5 446 L 341 448.5 L 342.5 450 L 345 448.5 L 342.5 451 Q 340.8 447.3 339 450.5 L 339.5 452 L 341 451.5 L 340.5 458 L 337 457.5 L 336.5 459 L 335.5 457 L 335 460 L 386.5 447 L 386.5 448 L 303.5 471 L 289.5 476 L 281.5 478 L 273.5 478 Q 271.3 477.3 272 473.5 L 278.5 466 L 297.5 456 L 339.5 439 L 347.5 437 L 352.5 434 Q 365 431.5 374.5 426 L 377.5 426 L 382.5 423 L 394.5 420 L 402.5 416 L 405.5 416 L 440.5 404 Z M 343 443 L 342 446 L 343 446 L 343 443 Z M 335 444 L 335 447 L 336 447 Q 337 443 335 444 Z M 338 445 L 337 449 L 338 449 L 338 445 Z M 340 446 L 339 449 L 340 449 L 340 446 Z M 338 450 L 336 452 L 337 455 L 338 452 L 338 450 Z M 339 452 L 339 455 Q 342 454 339 452 Z M 334 457 L 333 460 L 333 461 L 335 461 L 334 457 Z " /><path fill="rgb(10,25,15)" stroke="rgb(10,25,15)" stroke-width="1" opacity="0.23529411764705882" d="M 533.5 408 L 537 408.5 L 523.5 412 L 523.5 411 L 533.5 408 Z " /><path fill="rgb(10,25,15)" stroke="rgb(10,25,15)" stroke-width="1" opacity="0.23529411764705882" d="M 518.5 412 L 522 412.5 L 518.5 413 L 518.5 412 Z " /><path fill="rgb(10,25,15)" stroke="rgb(10,25,15)" stroke-width="1" opacity="0.23529411764705882" d="M 513.5 413 L 517 413.5 L 498.5 418 L 498.5 417 L 513.5 413 Z " /><path fill="rgb(10,25,15)" stroke="rgb(10,25,15)" stroke-width="1" opacity="0.23529411764705882" d="M 493.5 418 L 497 418.5 L 478.5 423 L 478.5 422 L 493.5 418 Z " /><path fill="rgb(10,25,15)" stroke="rgb(10,25,15)" stroke-width="1" opacity="0.23529411764705882" d="M 474.5 423 L 477 423.5 L 474.5 424 L 474.5 423 Z " /><path fill="rgb(10,25,15)" stroke="rgb(10,25,15)" stroke-width="1" opacity="0.23529411764705882" d="M 469.5 424 L 473 424.5 L 459.5 428 L 459.5 427 L 469.5 424 Z " /><path fill="rgb(10,25,15)" stroke="rgb(10,25,15)" stroke-width="1" opacity="0.23529411764705882" d="M 619.5 427 L 630 427.5 L 619.5 428 L 619.5 427 Z " /><path fill="rgb(10,25,15)" stroke="rgb(10,25,15)" stroke-width="1" opacity="0.23529411764705882" d="M 641.5 427 L 650 427.5 L 641.5 428 L 641.5 427 Z " /><path fill="rgb(10,25,15)" stroke="rgb(10,25,15)" stroke-width="1" opacity="0.23529411764705882" d="M 455.5 428 L 458 428.5 L 455.5 429 L 455.5 428 Z " /><path fill="rgb(10,25,15)" stroke="rgb(10,25,15)" stroke-width="1" opacity="0.23529411764705882" d="M 609.5 428 L 617 428.5 L 598.5 431 L 598.5 430 L 609.5 428 Z " /><path fill="rgb(10,25,15)" stroke="rgb(10,25,15)" stroke-width="1" opacity="0.23529411764705882" d="M 652.5 428 L 659.5 428 L 675 431.5 L 670.5 432 L 659.5 429 L 652.5 429 L 652.5 428 Z " /><path fill="rgb(10,25,15)" stroke="rgb(10,25,15)" stroke-width="1" opacity="0.23529411764705882" d="M 450.5 429 L 454 429.5 L 436.5 434 L 436.5 433 L 450.5 429 Z " /><path fill="rgb(10,25,15)" stroke="rgb(10,25,15)" stroke-width="1" opacity="0.23529411764705882" d="M 592.5 431 L 597 431.5 L 588.5 433 L 588.5 432 L 592.5 431 Z " /><path fill="rgb(10,25,15)" stroke="rgb(10,25,15)" stroke-width="1" opacity="0.23529411764705882" d="M 676.5 432 L 679 432.5 L 676.5 433 L 676.5 432 Z " /><path fill="rgb(10,25,15)" stroke="rgb(10,25,15)" stroke-width="1" opacity="0.23529411764705882" d="M 583.5 433 L 587 433.5 L 542.5 443 L 542.5 442 L 583.5 433 Z " /><path fill="rgb(10,25,15)" stroke="rgb(10,25,15)" stroke-width="1" opacity="0.23529411764705882" d="M 680.5 433 L 697 438.5 L 695.5 439 L 680.5 434 L 680.5 433 Z " /><path fill="rgb(10,25,15)" stroke="rgb(10,25,15)" stroke-width="1" opacity="0.23529411764705882" d="M 432.5 434 L 435 434.5 L 418.5 439 L 419.5 437 L 432.5 434 Z " /><path fill="rgb(10,25,15)" stroke="rgb(10,25,15)" stroke-width="1" opacity="0.23529411764705882" d="M 414.5 439 L 417 439.5 L 414.5 440 L 414.5 439 Z " /><path fill="rgb(10,25,15)" stroke="rgb(10,25,15)" stroke-width="1" opacity="0.23529411764705882" d="M 698.5 439 L 743 459.5 L 741.5 460 L 698.5 440 L 698.5 439 Z " /><path fill="rgb(10,25,15)" stroke="rgb(10,25,15)" stroke-width="1" opacity="0.23529411764705882" d="M 409.5 440 L 413 440.5 L 396.5 445 L 396.5 444 L 409.5 440 Z " /><path fill="rgb(10,25,15)" stroke="rgb(10,25,15)" stroke-width="1" opacity="0.23529411764705882" d="M 346.5 443 L 346.5 446 Q 343.5 444.5 346.5 443 Z " /><path fill="rgb(10,25,15)" stroke="rgb(10,25,15)" stroke-width="1" opacity="0.23529411764705882" d="M 537.5 443 L 541 443.5 L 522.5 448 L 522.5 447 L 537.5 443 Z " /><path fill="rgb(10,25,15)" stroke="rgb(10,25,15)" stroke-width="1" opacity="0.23529411764705882" d="M 394.5 444 L 395 446 L 388.5 447 L 388.5 446 L 394.5 444 Z " /><path fill="rgb(10,25,15)" stroke="rgb(10,25,15)" stroke-width="1" opacity="0.23529411764705882" d="M 917.5 444 L 931 444.5 L 917.5 445 L 917.5 444 Z " /><path fill="rgb(10,25,15)" stroke="rgb(10,25,15)" stroke-width="1" opacity="0.23529411764705882" d="M 934.5 444 L 953.5 445 L 961 447.5 L 957.5 448 L 945.5 445 L 934.5 445 L 934.5 444 Z " /><path fill="rgb(10,25,15)" stroke="rgb(10,25,15)" stroke-width="1" opacity="0.23529411764705882" d="M 907.5 445 L 916 445.5 L 903.5 447 L 903.5 446 L 907.5 445 Z " /><path fill="rgb(10,25,15)" stroke="rgb(10,25,15)" stroke-width="1" opacity="0.23529411764705882" d="M 898.5 447 L 902 447.5 L 898.5 448 L 898.5 447 Z " /><path fill="rgb(10,25,15)" stroke="rgb(10,25,15)" stroke-width="1" opacity="0.23529411764705882" d="M 518.5 448 L 521 448.5 L 518.5 449 L 518.5 448 Z " /><path fill="rgb(10,25,15)" stroke="rgb(10,25,15)" stroke-width="1" opacity="0.23529411764705882" d="M 894.5 448 L 897 448.5 L 894.5 449 L 894.5 448 Z " /><path fill="rgb(10,25,15)" stroke="rgb(10,25,15)" stroke-width="1" opacity="0.23529411764705882" d="M 962.5 448 L 965 448.5 L 962.5 449 L 962.5 448 Z " /><path fill="rgb(10,25,15)" stroke="rgb(10,25,15)" stroke-width="1" opacity="0.23529411764705882" d="M 513.5 449 L 516 449.5 L 513.5 450 L 513.5 449 Z " /><path fill="rgb(10,25,15)" stroke="rgb(10,25,15)" stroke-width="1" opacity="0.23529411764705882" d="M 889.5 449 L 893 449.5 L 880.5 453 L 880.5 452 L 889.5 449 Z " /><path fill="rgb(10,25,15)" stroke="rgb(10,25,15)" stroke-width="1" opacity="0.23529411764705882" d="M 966.5 449 L 969 449.5 L 966.5 450 L 966.5 449 Z " /><path fill="rgb(10,25,15)" stroke="rgb(10,25,15)" stroke-width="1" opacity="0.23529411764705882" d="M 508.5 450 L 512 450.5 L 502.5 453 L 502.5 452 L 508.5 450 Z " /><path fill="rgb(10,25,15)" stroke="rgb(10,25,15)" stroke-width="1" opacity="0.23529411764705882" d="M 970.5 450 L 982.5 454 L 1003.5 466 Q 1020.6 477.9 1034 493.5 Q 1054.1 517.4 1068 547.5 L 1078 571.5 L 1083 585.5 L 1085 596.5 L 1088 602.5 L 1088 606.5 L 1095 634.5 L 1095 640.5 L 1099 662.5 L 1100 689.5 L 1101 690.5 L 1101 721.5 L 1100 722.5 L 1100 735.5 L 1099 736.5 L 1098 755.5 L 1095 766.5 L 1093 781.5 Q 1088.8 788.8 1088 799.5 L 1078 824.5 L 1071 837.5 Q 1061.9 851.9 1049.5 863 Q 1040.5 871.5 1026.5 875 Q 1019 877.5 1007.5 876 L 986.5 868 Q 968.8 856.7 955 841.5 Q 955.8 839.3 953.5 840 Q 931.5 812.5 905.5 789 Q 880.6 766.4 844.5 755 L 828.5 751 L 814.5 750 L 813.5 749 L 773.5 748 L 762.5 750 L 751.5 750 L 731.5 754 L 704.5 762 L 688.5 769 Q 663.8 781.8 642.5 798 L 573.5 857 L 533.5 886 L 511.5 897 L 496.5 902 L 485.5 904 L 466.5 904 L 455.5 902 L 441.5 896 Q 429.6 888.9 421 878.5 L 409 862 L 407 862 Q 408.1 859.3 405.5 860 Q 401.5 855 394.5 853 L 356 844.5 L 360.5 844 L 374.5 848 L 376.5 848 L 392.5 851 L 401.5 855 L 415 867.5 L 428 885 L 442.5 895 L 453.5 900 L 468.5 903 L 483.5 903 L 498.5 900 L 517.5 893 L 546.5 876 L 576.5 853 L 639.5 799 Q 659.9 782.9 683.5 770 L 708.5 759 L 718.5 757 L 724.5 754 L 756.5 748 L 789.5 746 L 792.5 747 L 794.5 746 L 795.5 747 L 809.5 747 L 810.5 748 L 825.5 749 L 846.5 754 L 860.5 759 Q 904.6 779.9 934 815.5 L 966.5 851 Q 977.9 862.1 992.5 870 L 1010.5 875 L 1019.5 875 L 1032.5 872 L 1040.5 868 L 1060 850.5 Q 1070.9 837.9 1078 821.5 L 1089 791.5 L 1095 765.5 L 1097 744.5 L 1098 743.5 L 1099 717.5 L 1100 716.5 L 1100 693.5 L 1099 692.5 L 1099 676.5 L 1098 675.5 L 1098 666.5 L 1097 665.5 L 1097 656.5 L 1096 655.5 L 1094 635.5 L 1092 630.5 L 1087 604.5 L 1078 575.5 L 1069 552.5 L 1051 518.5 L 1026 486 L 1024 486 Q 1025.1 483.3 1022.5 484 L 1000.5 465 L 982.5 455 L 971.5 452 L 970.5 450 Z " /><path fill="rgb(10,25,15)" stroke="rgb(10,25,15)" stroke-width="1" opacity="0.23529411764705882" d="M 498.5 453 L 501 453.5 L 498.5 454 L 498.5 453 Z " /><path fill="rgb(10,25,15)" stroke="rgb(10,25,15)" stroke-width="1" opacity="0.23529411764705882" d="M 493.5 454 L 497 454.5 L 480.5 459 L 480.5 458 L 493.5 454 Z " /><path fill="rgb(10,25,15)" stroke="rgb(10,25,15)" stroke-width="1" opacity="0.23529411764705882" d="M 871.5 455 L 873 455.5 L 866.5 458 L 866.5 457 L 871.5 455 Z " /><path fill="rgb(10,25,15)" stroke="rgb(10,25,15)" stroke-width="1" opacity="0.23529411764705882" d="M 475.5 459 L 479 459.5 L 462.5 464 L 462.5 463 L 475.5 459 Z " /><path fill="rgb(10,25,15)" stroke="rgb(10,25,15)" stroke-width="1" opacity="0.23529411764705882" d="M 859.5 459 L 862 459.5 L 859.5 460 L 859.5 459 Z " /><path fill="rgb(10,25,15)" stroke="rgb(10,25,15)" stroke-width="1" opacity="0.23529411764705882" d="M 855.5 460 L 858 460.5 L 846.5 464 L 846.5 463 L 855.5 460 Z " /><path fill="rgb(10,25,15)" stroke="rgb(10,25,15)" stroke-width="1" opacity="0.23529411764705882" d="M 747.5 461 L 755 463.5 L 752.5 464 L 747.5 462 L 747.5 461 Z " /><path fill="rgb(10,25,15)" stroke="rgb(10,25,15)" stroke-width="1" opacity="0.23529411764705882" d="M 458.5 464 L 461 464.5 L 458.5 465 L 458.5 464 Z " /><path fill="rgb(10,25,15)" stroke="rgb(10,25,15)" stroke-width="1" opacity="0.23529411764705882" d="M 756.5 464 L 759 464.5 L 756.5 465 L 756.5 464 Z " /><path fill="rgb(10,25,15)" stroke="rgb(10,25,15)" stroke-width="1" opacity="0.23529411764705882" d="M 842.5 464 L 845 464.5 L 842.5 465 L 842.5 464 Z " /><path fill="rgb(10,25,15)" stroke="rgb(10,25,15)" stroke-width="1" opacity="0.23529411764705882" d="M 454.5 465 L 457 465.5 L 454.5 466 L 454.5 465 Z " /><path fill="rgb(10,25,15)" stroke="rgb(10,25,15)" stroke-width="1" opacity="0.23529411764705882" d="M 760.5 465 L 764 465.5 L 760.5 466 L 760.5 465 Z " /><path fill="rgb(10,25,15)" stroke="rgb(10,25,15)" stroke-width="1" opacity="0.23529411764705882" d="M 836.5 465 L 841 465.5 L 836.5 466 L 836.5 465 Z " /><path fill="rgb(10,25,15)" stroke="rgb(10,25,15)" stroke-width="1" opacity="0.23529411764705882" d="M 450.5 466 L 453 466.5 L 394.5 485 L 383.5 490 L 380.5 490 L 347.5 503 L 338.5 508 L 333.5 509 L 323 515.5 L 326.5 516 L 330.5 514 L 339.5 514 L 367.5 508 L 384.5 506 L 384.5 507 L 322.5 518 L 319 517 Q 317.9 514.3 320.5 515 L 326.5 510 L 332.5 509 L 363.5 495 L 374.5 492 L 393.5 484 L 450.5 466 Z " /><path fill="rgb(10,25,15)" stroke="rgb(10,25,15)" stroke-width="1" opacity="0.23529411764705882" d="M 765.5 466 L 776.5 467 L 777.5 468 L 786.5 468 L 787.5 469 L 811.5 469 L 812.5 468 L 821.5 468 L 822.5 467 L 834.5 466 L 834.5 467 L 824.5 469 L 814.5 469 L 813.5 470 L 785.5 470 L 784.5 469 L 769.5 468 L 765.5 467 L 765.5 466 Z " /><path fill="rgb(10,25,15)" stroke="rgb(10,25,15)" stroke-width="1" opacity="0.23529411764705882" d="M 636.5 470 L 650.5 470 L 651.5 471 L 660 471.5 L 651.5 472 L 650.5 471 L 636.5 471 Q 634.8 473.8 628.5 472 L 628.5 471 Q 634.8 472.8 636.5 470 Z " /><path fill="rgb(10,25,15)" stroke="rgb(10,25,15)" stroke-width="1" opacity="0.23529411764705882" d="M 620.5 472 L 625 472.5 L 620.5 473 L 620.5 472 Z " /><path fill="rgb(10,25,15)" stroke="rgb(10,25,15)" stroke-width="1" opacity="0.23529411764705882" d="M 662.5 472 L 667 472.5 L 662.5 473 L 662.5 472 Z " /><path fill="rgb(10,25,15)" stroke="rgb(10,25,15)" stroke-width="1" opacity="0.23529411764705882" d="M 614.5 473 L 619 473.5 L 604.5 477 L 604.5 476 L 614.5 473 Z " /><path fill="rgb(10,25,15)" stroke="rgb(10,25,15)" stroke-width="1" opacity="0.23529411764705882" d="M 669.5 473 L 673 473.5 L 669.5 474 L 669.5 473 Z " /><path fill="rgb(10,25,15)" stroke="rgb(10,25,15)" stroke-width="1" opacity="0.23529411764705882" d="M 674.5 474 L 687 477.5 L 685.5 478 L 674.5 475 L 674.5 474 Z " /><path fill="rgb(10,25,15)" stroke="rgb(10,25,15)" stroke-width="1" opacity="0.23529411764705882" d="M 688.5 478 L 691 478.5 L 688.5 479 L 688.5 478 Z " /><path fill="rgb(10,25,15)" stroke="rgb(10,25,15)" stroke-width="1" opacity="0.23529411764705882" d="M 595.5 479 L 597 479.5 L 587.5 484 L 587.5 483 L 595.5 479 Z " /><path fill="rgb(10,25,15)" stroke="rgb(10,25,15)" stroke-width="1" opacity="0.23529411764705882" d="M 695.5 480 L 702 482.5 L 700.5 483 L 695.5 481 L 695.5 480 Z " /><path fill="rgb(10,25,15)" stroke="rgb(10,25,15)" stroke-width="1" opacity="0.23529411764705882" d="M 929.5 481 L 952.5 481 L 960 482.5 L 953.5 483 L 952.5 482 L 929.5 482 L 929.5 481 Z " /><path fill="rgb(10,25,15)" stroke="rgb(10,25,15)" stroke-width="1" opacity="0.23529411764705882" d="M 920.5 482 L 928 482.5 L 915.5 484 L 915.5 483 L 920.5 482 Z " /><path fill="rgb(10,25,15)" stroke="rgb(10,25,15)" stroke-width="1" opacity="0.23529411764705882" d="M 703.5 483 L 707 484.5 L 705.5 485 L 703.5 483 Z " /><path fill="rgb(10,25,15)" stroke="rgb(10,25,15)" stroke-width="1" opacity="0.23529411764705882" d="M 961.5 483 L 965 483.5 L 961.5 484 L 961.5 483 Z " /><path fill="rgb(10,25,15)" stroke="rgb(10,25,15)" stroke-width="1" opacity="0.23529411764705882" d="M 584.5 484 L 586 484.5 Q 555.7 499.7 535 524.5 L 523.5 539 L 525 536.5 L 540 517 L 544 514.5 L 545.5 512 L 556 504 Q 554.9 501.3 557.5 502 Q 569.3 491.3 584.5 484 Z " /><path fill="rgb(10,25,15)" stroke="rgb(10,25,15)" stroke-width="1" opacity="0.23529411764705882" d="M 909.5 484 L 914 484.5 L 890.5 490 L 884.5 493 L 860.5 500 L 860.5 499 L 886.5 490 L 909.5 484 Z " /><path fill="rgb(10,25,15)" stroke="rgb(10,25,15)" stroke-width="1" opacity="0.23529411764705882" d="M 967.5 484 L 970 484.5 L 967.5 485 L 967.5 484 Z " /><path fill="rgb(10,25,15)" stroke="rgb(10,25,15)" stroke-width="1" opacity="0.23529411764705882" d="M 708.5 485 L 716 488.5 L 714.5 489 L 708.5 486 L 708.5 485 Z " /><path fill="rgb(10,25,15)" stroke="rgb(10,25,15)" stroke-width="1" opacity="0.23529411764705882" d="M 971.5 485 Q 984.7 487.3 994 493.5 L 992.5 493 L 973.5 487 L 971.5 485 Z " /><path fill="rgb(10,25,15)" stroke="rgb(10,25,15)" stroke-width="1" opacity="0.23529411764705882" d="M 495.5 487 L 499 487.5 Q 496.3 488.6 497 492 L 487.5 500 L 495 491.5 L 492.5 489 L 458.5 494 L 458.5 493 L 463.5 493 L 474.5 490 L 489.5 489 L 495.5 487 Z " /><path fill="rgb(10,25,15)" stroke="rgb(10,25,15)" stroke-width="1" opacity="0.23529411764705882" d="M 722.5 491 L 730 494.5 L 728.5 495 L 723.5 493 L 722.5 491 Z " /><path fill="rgb(10,25,15)" stroke="rgb(10,25,15)" stroke-width="1" opacity="0.23529411764705882" d="M 451.5 494 L 457 494.5 L 451.5 495 L 451.5 494 Z " /><path fill="rgb(10,25,15)" stroke="rgb(10,25,15)" stroke-width="1" opacity="0.23529411764705882" d="M 995.5 494 L 1009.5 502 L 1024 513 Q 1022.9 515.7 1025.5 515 Q 1041 530.5 1052 550.5 L 1064 575.5 L 1073 603.5 L 1075 616.5 L 1078 625.5 L 1081 655.5 L 1082 656.5 L 1082 666.5 L 1083 667.5 L 1083 714.5 L 1082 714.5 L 1082 669.5 L 1080 659.5 L 1080 649.5 L 1079 648.5 L 1075 618.5 L 1069 595.5 L 1058 564.5 L 1049 549.5 L 1048 545.5 Q 1035.6 525.4 1018.5 510 L 1014 508 Q 1015.1 505.3 1012.5 506 Q 1006.3 499.2 996.5 496 L 995.5 494 Z " /><path fill="rgb(10,25,15)" stroke="rgb(10,25,15)" stroke-width="1" opacity="0.23529411764705882" d="M 443.5 495 L 449 495.5 L 427.5 499 L 427.5 498 L 443.5 495 Z " /><path fill="rgb(10,25,15)" stroke="rgb(10,25,15)" stroke-width="1" opacity="0.23529411764705882" d="M 733.5 496 L 740 498.5 L 737.5 499 L 733.5 497 L 733.5 496 Z " /><path fill="rgb(10,25,15)" stroke="rgb(10,25,15)" stroke-width="1" opacity="0.23529411764705882" d="M 422.5 499 L 426 499.5 L 422.5 500 L 422.5 499 Z " /><path fill="rgb(10,25,15)" stroke="rgb(10,25,15)" stroke-width="1" opacity="0.23529411764705882" d="M 415.5 500 L 420 500.5 L 415.5 501 L 415.5 500 Z " /><path fill="rgb(10,25,15)" stroke="rgb(10,25,15)" stroke-width="1" opacity="0.23529411764705882" d="M 856.5 500 L 859 500.5 L 837.5 506 L 837.5 505 Q 848.4 503.9 856.5 500 Z " /><path fill="rgb(10,25,15)" stroke="rgb(10,25,15)" stroke-width="1" opacity="0.23529411764705882" d="M 408.5 501 L 414 501.5 L 398.5 505 L 393.5 505 L 393.5 504 L 396.5 503 L 398.5 503 L 408.5 501 Z " /><path fill="rgb(10,25,15)" stroke="rgb(10,25,15)" stroke-width="1" opacity="0.23529411764705882" d="M 486.5 501 L 484 504.5 L 480.5 509 L 483 505.5 L 486.5 501 Z " /><path fill="rgb(10,25,15)" stroke="rgb(10,25,15)" stroke-width="1" opacity="0.23529411764705882" d="M 747.5 501 L 755 503.5 L 751.5 504 L 747.5 502 L 747.5 501 Z " /><path fill="rgb(10,25,15)" stroke="rgb(10,25,15)" stroke-width="1" opacity="0.23529411764705882" d="M 756.5 504 L 759 504.5 L 756.5 505 L 756.5 504 Z " /><path fill="rgb(10,25,15)" stroke="rgb(10,25,15)" stroke-width="1" opacity="0.23529411764705882" d="M 386.5 505 L 392 505.5 L 386.5 506 L 386.5 505 Z " /><path fill="rgb(10,25,15)" stroke="rgb(10,25,15)" stroke-width="1" opacity="0.23529411764705882" d="M 760.5 505 L 763 505.5 L 760.5 506 L 760.5 505 Z " /><path fill="rgb(10,25,15)" stroke="rgb(10,25,15)" stroke-width="1" opacity="0.23529411764705882" d="M 765.5 506 L 768 506.5 L 765.5 507 L 765.5 506 Z " /><path fill="rgb(10,25,15)" stroke="rgb(10,25,15)" stroke-width="1" opacity="0.23529411764705882" d="M 831.5 506 L 836 506.5 L 817.5 510 L 781.5 510 L 769 507.5 L 774.5 507 L 781.5 509 L 817.5 509 L 831.5 506 Z " /><path fill="rgb(10,25,15)" stroke="rgb(10,25,15)" stroke-width="1" opacity="0.23529411764705882" d="M 479.5 510 L 478 512.5 L 472.5 520 L 474 517.5 L 479.5 510 Z " /><path fill="rgb(10,25,15)" stroke="rgb(10,25,15)" stroke-width="1" opacity="0.23529411764705882" d="M 272.5 518 Q 282.3 516.3 285 521.5 Q 288 524.5 287 531.5 L 282.5 539 L 284 536.5 Q 286.9 532.9 286 525.5 L 280.5 519 L 272.5 519 L 254.5 524 L 214.5 537 L 193 545.5 L 196.5 546 L 198 545.5 L 198 547.5 L 198.5 550 L 200 549.5 L 198 551.5 L 199 554.5 L 197 556.5 L 197.5 558 L 200 556.5 L 197 561.5 L 197.5 563 L 222.5 556 L 234.5 554 L 234.5 555 L 181.5 568 L 177 566 L 176 559.5 Q 177.2 551.7 182.5 548 L 221.5 533 L 272.5 518 Z M 197 548 L 196 552 L 198 551 L 197 548 Z M 196 554 Q 196 558 198 555 L 196 554 Z " /><path fill="rgb(10,25,15)" stroke="rgb(10,25,15)" stroke-width="1" opacity="0.23529411764705882" d="M 471.5 521 L 470.5 523 L 471.5 521 Z " /><path fill="rgb(10,25,15)" stroke="rgb(10,25,15)" stroke-width="1" opacity="0.23529411764705882" d="M 469.5 524 L 468 526.5 L 465.5 530 L 467 527.5 L 469.5 524 Z " /><path fill="rgb(10,25,15)" stroke="rgb(10,25,15)" stroke-width="1" opacity="0.23529411764705882" d="M 952.5 530 L 964.5 531 Q 975.8 535.2 982 544.5 Q 985.5 549 986 556.5 L 985 556.5 L 985 553.5 L 977 540 L 965.5 533 L 949.5 532 Q 937.3 535.3 931 544.5 Q 924 552.5 925 568.5 L 928 578.5 L 938.5 590 L 948.5 595 L 958.5 596 Q 973 593.5 980 583.5 L 985 573.5 L 986.5 558 L 987 569.5 Q 984.4 580.9 977.5 588 L 964.5 596 Q 959.4 598.4 950.5 597 Q 938.5 594 932 585.5 L 925 575.5 Q 922.5 568 924 556.5 Q 928 543.5 937.5 536 L 944.5 532 L 952.5 530 Z " /><path fill="rgb(10,25,15)" stroke="rgb(10,25,15)" stroke-width="1" opacity="0.23529411764705882" d="M 464.5 531 L 463 533.5 Q 455.4 547.4 443.5 557 L 433.5 563 L 420.5 567 L 414.5 567 L 414.5 566 Q 441.4 562.9 454 545.5 L 464.5 531 Z " /><path fill="rgb(10,25,15)" stroke="rgb(10,25,15)" stroke-width="1" opacity="0.23529411764705882" d="M 636.5 538 L 659.5 538 L 669 544.5 L 673 553.5 L 672 553.5 Q 670.6 545.4 664.5 542 Q 654.8 536.8 637.5 539 Q 629.2 540.7 625 546.5 L 621.5 554 L 621 551.5 L 629.5 541 L 636.5 538 Z " /><path fill="rgb(10,25,15)" stroke="rgb(10,25,15)" stroke-width="1" opacity="0.23529411764705882" d="M 281.5 540 L 280.5 542 L 273.5 545 L 273.5 544 L 281.5 540 Z " /><path fill="rgb(10,25,15)" stroke="rgb(10,25,15)" stroke-width="1" opacity="0.23529411764705882" d="M 522.5 540 L 522 541.5 L 517.5 548 L 518 546.5 L 522.5 540 Z " /><path fill="rgb(10,25,15)" stroke="rgb(10,25,15)" stroke-width="1" opacity="0.23529411764705882" d="M 269.5 545 L 272 545.5 L 261.5 548 L 261.5 547 L 269.5 545 Z " /><path fill="rgb(10,25,15)" stroke="rgb(10,25,15)" stroke-width="1" opacity="0.23529411764705882" d="M 257.5 548 L 260 548.5 L 257.5 549 L 257.5 548 Z " /><path fill="rgb(10,25,15)" stroke="rgb(10,25,15)" stroke-width="1" opacity="0.23529411764705882" d="M 252.5 549 L 256 549.5 L 236.5 554 L 236.5 553 L 252.5 549 Z " /><path fill="rgb(10,25,15)" stroke="rgb(10,25,15)" stroke-width="1" opacity="0.23529411764705882" d="M 516.5 549 L 516 550.5 L 495.5 589 L 495 587.5 Q 503.9 566.4 516.5 549 Z " /><path fill="rgb(10,25,15)" stroke="rgb(10,25,15)" stroke-width="1" opacity="0.23529411764705882" d="M 620.5 555 L 621 579.5 L 620 580.5 L 620 596 L 579 595.5 L 619 595 L 620.5 555 Z " /><path fill="rgb(10,25,15)" stroke="rgb(10,25,15)" stroke-width="1" opacity="0.23529411764705882" d="M 673.5 555 L 674 575.5 L 673 575.5 L 673.5 555 Z " /><path fill="rgb(10,25,15)" stroke="rgb(10,25,15)" stroke-width="1" opacity="0.23529411764705882" d="M 365.5 567 L 410 567.5 L 365.5 568 L 364.5 569 L 355.5 569 L 341.5 572 L 334.5 572 L 328.5 574 L 322.5 574 L 316.5 576 L 290.5 580 L 285.5 582 L 280.5 582 L 275.5 584 L 270.5 584 L 266.5 586 L 249.5 589 L 244 591.5 L 246.5 593 L 247.5 591 L 248.5 593 L 249.5 591 L 250 592.5 L 247 593.5 L 248 597.5 L 247.5 600 Q 246.2 597.7 245 600.5 L 245.5 602 L 247 601.5 L 244.5 606 L 243.5 603 L 242 609.5 L 244 608.5 L 244.5 607 L 245 608.5 L 244.5 611 L 243 610.5 L 242 612.5 L 249.5 613 L 250.5 612 L 273.5 610 L 280.5 608 L 287.5 608 L 304.5 605 L 325.5 604 L 334.5 602 L 366.5 600 L 367.5 599 L 392.5 598 L 392.5 599 L 380.5 599 L 379.5 600 L 357.5 601 L 348.5 603 L 337.5 603 L 336.5 604 L 328.5 604 L 318.5 606 L 309.5 606 L 301.5 608 L 270.5 611 L 263.5 613 L 240.5 615 L 216.5 620 L 185.5 624 Q 182.5 623.5 183 619.5 L 192.5 607 L 206.5 599 L 253.5 586 L 263.5 585 L 272.5 582 L 287.5 580 L 313.5 574 L 352.5 569 L 353.5 568 L 364.5 568 L 365.5 567 Z M 246 593 L 245 597 L 246 597 L 246 593 Z M 242 603 L 241 608 L 242 608 L 242 603 Z M 241 612 Q 239 615 242 614 L 241 612 Z " /><path fill="rgb(10,25,15)" stroke="rgb(10,25,15)" stroke-width="1" opacity="0.23529411764705882" d="M 672.5 578 L 673 593.5 L 674.5 595 L 711 595.5 L 672.5 596 Q 669.8 594.8 672 593.5 L 672.5 578 Z " /><path fill="rgb(10,25,15)" stroke="rgb(10,25,15)" stroke-width="1" opacity="0.23529411764705882" d="M 494.5 590 L 495 591.5 L 489.5 603 L 489 601.5 L 494.5 590 Z " /><path fill="rgb(10,25,15)" stroke="rgb(10,25,15)" stroke-width="1" opacity="0.23529411764705882" d="M 892.5 592 Q 912.3 592.3 921 603.5 L 928 618.5 L 928 632.5 L 925 640.5 L 915.5 652 L 902.5 658 L 889.5 658 Q 876.9 654.6 870 645.5 L 864 633.5 L 864 619.5 L 866.5 614 L 867 616.5 Q 863.7 621.2 865 630.5 Q 867.9 645.1 878.5 652 L 889.5 657 L 900.5 657 Q 914.4 654.4 921 644.5 L 927 630.5 L 927 619.5 Q 924.3 606.7 915.5 600 L 903.5 594 L 889.5 594 L 883.5 596 L 883.5 595 L 892.5 592 Z " /><path fill="rgb(10,25,15)" stroke="rgb(10,25,15)" stroke-width="1" opacity="0.23529411764705882" d="M 1012.5 592 Q 1027.7 593.3 1035 602.5 L 1039 607.5 L 1044 620.5 L 1044 630.5 Q 1041.7 644.2 1032.5 651 L 1018.5 658 L 1008.5 658 Q 998.1 655.9 992 649.5 L 984 638.5 L 982 629.5 L 982 620.5 Q 985.5 605 996.5 597 L 1012.5 592 Z M 1009 594 L 997 599 Q 986 606 983 622 L 985 638 L 991 647 Q 998 655 1011 657 Q 1024 657 1031 651 Q 1039 645 1042 633 Q 1044 613 1035 605 L 1025 596 L 1018 594 L 1009 594 Z " /><path fill="rgb(10,25,15)" stroke="rgb(10,25,15)" stroke-width="1" opacity="0.23529411764705882" d="M 414.5 596 L 423.5 596 L 433 600 L 437 607.5 L 437 616.5 L 430 634.5 L 424.5 640 L 417.5 644 L 406.5 646 L 404.5 646 L 387.5 646 L 385.5 647 L 383.5 646 L 382.5 647 L 372.5 647 L 371.5 648 L 330.5 650 L 330.5 649 L 353.5 648 L 362.5 646 L 413.5 644 Q 422.9 641.9 428 635.5 L 435 620.5 L 436 608.5 L 429.5 599 Q 424.1 595.9 414.5 597 L 414.5 596 Z " /><path fill="rgb(10,25,15)" stroke="rgb(10,25,15)" stroke-width="1" opacity="0.23529411764705882" d="M 575.5 596 L 578 596.5 Q 569.5 599 565 605.5 L 562.5 611 L 562 609.5 L 568.5 600 L 575.5 596 Z " /><path fill="rgb(10,25,15)" stroke="rgb(10,25,15)" stroke-width="1" opacity="0.23529411764705882" d="M 712.5 596 Q 721.4 597.6 725 604.5 L 728 613.5 L 728 621.5 L 724 639.5 L 716.5 647 L 710.5 650 L 672.5 650 L 670 651 L 669 654.5 L 667 684.5 Q 665.1 694.2 660 700 L 648.5 706 L 628.5 706 L 617 699.5 L 613 692.5 L 613 674.5 L 614 673.5 L 616 651.5 L 614.5 650 L 577 649.5 L 617 649 L 616 668.5 L 614 676.5 L 614 678.5 L 614 691.5 Q 616.3 698.3 621.5 702 Q 630.2 707.3 646.5 705 Q 656.2 703.2 661 696.5 L 665 688.5 L 669 649 L 709.5 649 Q 717.5 646.5 722 640.5 L 725 633.5 L 726 610.5 L 720.5 601 L 712.5 597 L 712.5 596 Z " /><path fill="rgb(10,25,15)" stroke="rgb(10,25,15)" stroke-width="1" opacity="0.23529411764705882" d="M 880.5 596 L 882 596.5 L 873 603.5 L 867.5 613 L 867 611.5 L 877.5 598 L 880.5 596 Z " /><path fill="rgb(10,25,15)" stroke="rgb(10,25,15)" stroke-width="1" opacity="0.23529411764705882" d="M 396.5 597 L 411 597.5 L 396.5 598 L 396.5 597 Z " /><path fill="rgb(10,25,15)" stroke="rgb(10,25,15)" stroke-width="1" opacity="0.23529411764705882" d="M 488.5 604 L 489 605.5 L 483.5 618 L 483 616.5 L 488.5 604 Z " /><path fill="rgb(10,25,15)" stroke="rgb(10,25,15)" stroke-width="1" opacity="0.23529411764705882" d="M 561.5 612 L 562 615.5 L 561 616.5 L 561 629.5 L 560 630.5 L 563 640.5 L 569 646.5 L 566.5 645 Q 564.3 645.8 565 643.5 L 559 634.5 L 559 621.5 L 561.5 612 Z " /><path fill="rgb(10,25,15)" stroke="rgb(10,25,15)" stroke-width="1" opacity="0.23529411764705882" d="M 482.5 619 L 483 620.5 L 474 643.5 L 466 673.5 L 462 683.5 L 451.5 728 L 451 722.5 L 469 655.5 L 482.5 619 Z " /><path fill="rgb(10,25,15)" stroke="rgb(10,25,15)" stroke-width="1" opacity="0.23529411764705882" d="M 570.5 647 L 575 648.5 L 572.5 649 L 570.5 647 Z " /><path fill="rgb(10,25,15)" stroke="rgb(10,25,15)" stroke-width="1" opacity="0.23529411764705882" d="M 312.5 650 L 329 650.5 L 259.5 657 L 236.5 661 L 234.5 661 L 223 662.5 L 225.5 664 Q 226.8 661.8 228 664.5 L 230 668.5 L 228 669.5 L 228 667.5 L 227.5 666 L 226 671.5 L 227.5 671 L 230 672.5 L 228.5 678 L 227 677.5 L 227.5 680 L 229 679.5 Q 227.5 682.5 226 679.5 L 225.5 677 L 225 680.5 L 226 682.5 L 226 684.5 L 225.5 686 L 224.5 684 L 223 686.5 L 315 687.5 L 175.5 690 Q 167.7 688.3 163 683.5 Q 161.8 674.8 166.5 672 L 173.5 668 L 198.5 663 L 229.5 660 L 230.5 659 L 252.5 657 L 253.5 656 L 274.5 655 L 275.5 654 L 299.5 652 L 300.5 651 L 311.5 651 L 312.5 650 Z M 226 666 L 225 670 L 226 670 L 226 666 Z M 227 672 L 227 674 L 229 673 L 227 672 Z " /><path fill="rgb(10,25,15)" stroke="rgb(10,25,15)" stroke-width="1" opacity="0.23529411764705882" d="M 949.5 653 L 963.5 653 Q 973.6 656.9 980 664.5 Q 985.7 669.3 986 679.5 L 985 679.5 Q 983 666 973.5 660 L 961.5 654 L 949.5 654 Q 937.3 657.3 931 666.5 L 926 676.5 L 925 690.5 Q 926.9 702.6 934.5 709 Q 942.5 717.5 959.5 717 Q 973.8 714.8 980 704.5 L 985 694.5 L 986.5 681 L 987 689.5 L 984 700.5 L 973.5 713 L 961.5 718 L 949.5 718 Q 935.8 714.8 929 704.5 L 924 693.5 L 924 678.5 Q 928 665.5 937.5 658 L 949.5 653 Z " /><path fill="rgb(10,25,15)" stroke="rgb(10,25,15)" stroke-width="1" opacity="0.23529411764705882" d="M 229.5 664 L 231.5 667 L 229.5 664 Z " /><path fill="rgb(10,25,15)" stroke="rgb(10,25,15)" stroke-width="1" opacity="0.23529411764705882" d="M 317.5 686 L 318 688 L 316 687.5 L 317.5 686 Z " /><path fill="rgb(10,25,15)" stroke="rgb(10,25,15)" stroke-width="1" opacity="0.23529411764705882" d="M 320.5 686 L 321.5 688 L 319 687.5 L 320.5 686 Z " /><path fill="rgb(10,25,15)" stroke="rgb(10,25,15)" stroke-width="1" opacity="0.23529411764705882" d="M 324.5 687 L 340 687.5 L 324.5 688 L 324.5 687 Z " /><path fill="rgb(10,25,15)" stroke="rgb(10,25,15)" stroke-width="1" opacity="0.23529411764705882" d="M 341.5 687 L 393.5 687 L 401 690.5 L 399.5 690 L 393.5 688 L 341.5 688 L 341.5 687 Z " /><path fill="rgb(10,25,15)" stroke="rgb(10,25,15)" stroke-width="1" opacity="0.23529411764705882" d="M 402.5 691 L 405.5 695 L 402.5 691 Z " /><path fill="rgb(10,25,15)" stroke="rgb(10,25,15)" stroke-width="1" opacity="0.23529411764705882" d="M 406.5 696 L 409 700.5 L 408 700.5 L 406.5 696 Z " /><path fill="rgb(10,25,15)" stroke="rgb(10,25,15)" stroke-width="1" opacity="0.23529411764705882" d="M 409.5 702 L 410 706.5 L 409 706.5 L 409.5 702 Z " /><path fill="rgb(10,25,15)" stroke="rgb(10,25,15)" stroke-width="1" opacity="0.23529411764705882" d="M 409.5 710 L 410 715.5 L 409 715.5 L 409.5 710 Z " /><path fill="rgb(10,25,15)" stroke="rgb(10,25,15)" stroke-width="1" opacity="0.23529411764705882" d="M 780.5 711 L 823.5 711 L 824.5 712 L 832.5 712 L 837.5 714 L 842.5 714 L 855.5 717 L 867.5 721 Q 908.6 738.4 935 770.5 L 970 815.5 L 985.5 831 L 1002.5 840 L 1019.5 841 L 1032.5 836 L 1049 821.5 L 1064 795.5 L 1071 776.5 L 1077 753.5 L 1077 744.5 L 1079 738.5 L 1081.5 716 L 1082 726.5 L 1081 727.5 L 1078 753.5 L 1067 791.5 L 1054 816.5 L 1041.5 831 Q 1034 837.5 1023.5 841 Q 1016.8 843.3 1006.5 842 L 987.5 834 L 970 817.5 L 934 771.5 L 911.5 749 Q 890.1 730.4 860.5 720 L 841.5 715 L 819.5 713 L 818.5 712 L 785.5 712 L 784.5 713 L 767.5 714 L 751.5 717 L 722.5 725 L 703.5 732 L 666.5 751 L 644.5 765 Q 612.2 786.7 583.5 812 L 542.5 840 L 533.5 845 L 514.5 852 L 504.5 854 L 486.5 854 Q 466.5 850 457 835.5 Q 449.5 825.5 446 811.5 L 445 799.5 L 444 798.5 L 444 770.5 L 445 769.5 L 445.5 759 L 446 769.5 L 445 770.5 L 445 797.5 L 446 798.5 L 446 806.5 L 451 822.5 Q 456.2 834.8 465.5 843 L 482.5 852 L 501.5 853 L 502.5 852 L 514.5 851 L 528.5 846 L 548.5 835 L 573.5 818 L 639.5 767 Q 660.5 752 684.5 740 L 710.5 728 L 727.5 722 L 745.5 717 L 766.5 714 L 772.5 712 L 779.5 712 L 780.5 711 Z " /><path fill="rgb(10,25,15)" stroke="rgb(10,25,15)" stroke-width="1" opacity="0.23529411764705882" d="M 408.5 718 L 409 721.5 L 404 735.5 L 396.5 743 L 390.5 746 Q 384.3 744.3 382.5 747 L 338.5 748 L 338.5 747 L 386.5 745 L 394.5 743 L 401 737.5 L 405 731.5 L 408.5 718 Z " /><path fill="rgb(10,25,15)" stroke="rgb(10,25,15)" stroke-width="1" opacity="0.23529411764705882" d="M 450.5 729 L 451 733.5 L 450 733.5 L 450.5 729 Z " /><path fill="rgb(10,25,15)" stroke="rgb(10,25,15)" stroke-width="1" opacity="0.23529411764705882" d="M 157.5 731 L 160.5 732 L 236.5 733 L 243 738.5 Q 246.6 743.9 245 754.5 Q 242.9 762.4 236.5 766 L 226.5 767 L 225.5 766 L 203.5 765 L 196.5 763 L 152.5 759 L 146 753.5 L 145 744.5 L 146 739.5 L 150.5 733 L 157.5 731 Z M 172 733 L 166 735 L 170 736 L 167 737 L 170 738 L 169 740 Q 171 741 169 742 L 169 740 L 166 741 L 167 743 L 169 744 L 167 745 L 169 746 L 167 747 L 169 748 L 167 749 L 169 750 L 167 751 L 169 752 L 167 755 L 169 755 L 170 758 L 169 757 L 166 759 L 192 761 L 200 763 L 222 764 L 223 765 Q 231 766 237 764 L 244 755 Q 246 743 241 739 L 237 735 L 225 735 L 224 734 L 189 734 L 187 733 L 185 733 L 180 734 L 174 734 L 172 733 Z M 167 751 L 166 754 L 167 754 L 167 751 Z " /><path fill="rgb(10,25,15)" stroke="rgb(10,25,15)" stroke-width="1" opacity="0.23529411764705882" d="M 449.5 735 L 450 740.5 L 446.5 758 L 446 751.5 L 449.5 735 Z " /><path fill="rgb(10,25,15)" stroke="rgb(10,25,15)" stroke-width="1" opacity="0.23529411764705882" d="M 320.5 748 L 337 748.5 L 327.5 749 L 326.5 750 L 324.5 749 L 323.5 750 L 311.5 750 L 301.5 752 L 289.5 752 L 286 753.5 L 288 754 Q 286.9 756.7 289.5 756 L 293.5 758 L 307.5 759 L 321.5 763 L 327.5 763 L 339.5 766 L 377 771.5 L 371.5 772 L 344.5 767 L 330.5 766 L 320.5 763 L 315.5 763 L 299.5 759 L 285.5 758 L 283 757 L 280 752.5 L 282.5 751 L 293.5 751 L 304.5 749 L 319.5 749 L 320.5 748 Z " /><path fill="rgb(10,25,15)" stroke="rgb(10,25,15)" stroke-width="1" opacity="0.23529411764705882" d="M 379.5 772 L 383.5 772 L 393 776 L 393 778 Q 395.7 776.9 395 779.5 L 399 785.5 L 399 788.5 L 398 788.5 Q 397.3 780.3 391.5 777 Q 387.5 773 379.5 773 L 379.5 772 Z " /><path fill="rgb(10,25,15)" stroke="rgb(10,25,15)" stroke-width="1" opacity="0.23529411764705882" d="M 399.5 790 L 400 814.5 L 394.5 821 L 388.5 823 L 382.5 823 L 381.5 822 L 362.5 821 L 347.5 818 L 328.5 817 L 327.5 816 L 311.5 815 L 302.5 813 L 293.5 813 L 292.5 812 L 290.5 812 L 270.5 811 L 269.5 810 L 265.5 810 Q 259.4 808.8 260 811.5 L 261.5 811 Q 263.8 810.3 263 812.5 L 264 812.5 L 264.5 811 L 265.5 813 L 267 812.5 L 266 813.5 L 268 815.5 L 267.5 818 L 265 817.5 Q 267.3 816.2 264.5 815 L 264 820.5 L 265 820.5 L 265.5 819 L 267 821.5 L 265.5 823 L 263 821.5 L 265.5 825 L 269.5 825 L 282.5 829 L 303.5 832 L 312.5 835 L 322.5 836 L 331.5 839 L 355 843.5 L 350.5 844 L 349.5 843 L 338.5 842 L 330.5 839 L 315.5 837 L 302.5 833 L 285.5 831 L 276.5 828 L 256.5 825 L 252.5 823 L 241.5 822 L 227.5 818 L 217.5 817 L 204 812 Q 202.5 806.6 205.5 805 L 218.5 803 L 219.5 804 L 230.5 804 L 231.5 805 L 240.5 805 L 248.5 807 L 269.5 808 L 270.5 809 L 278.5 809 L 287.5 811 L 323.5 814 L 324.5 815 L 349.5 817 L 357.5 819 L 374.5 820 L 375.5 821 L 390.5 821 L 398 815.5 L 399 813.5 L 399.5 790 Z M 263 816 L 262 821 L 263 821 L 263 816 Z M 261 817 L 260 821 L 261 821 L 261 817 Z M 262 821 L 261 823 L 261 824 L 263 824 L 262 821 Z " /><path fill="rgb(0,0,0)" stroke="rgb(0,0,0)" stroke-width="1" opacity="0" d="M 0 0 L 1254 0 L 1254 1254 L 0 1254 L 0 0 Z M 536 377 L 504 385 L 494 389 L 482 391 L 476 394 L 469 395 L 460 399 L 453 400 L 444 404 L 433 406 L 428 409 L 421 410 L 406 416 L 403 416 L 395 420 L 383 423 L 378 426 L 375 426 L 322 446 L 287 461 L 279 466 L 272 474 Q 271 477 274 478 L 282 478 L 290 476 L 374 451 L 385 449 L 388 447 L 403 444 L 410 441 L 421 439 L 451 430 L 463 428 L 470 425 L 506 417 L 518 413 L 527 412 L 544 406 Q 550 402 552 394 Q 553 387 550 384 L 546 379 L 536 377 Z M 620 427 L 619 428 L 603 429 L 598 431 L 593 431 L 588 433 L 549 440 L 542 443 L 529 445 L 518 449 L 509 450 L 502 453 L 490 455 L 480 459 L 476 459 L 462 464 L 451 466 L 394 484 L 375 492 L 364 495 L 333 509 L 327 510 L 321 515 Q 318 514 319 517 L 323 518 L 337 515 L 343 515 L 359 511 L 370 510 L 386 506 L 410 503 L 415 501 L 439 498 L 444 496 L 464 494 L 475 491 L 483 491 L 492 489 L 495 492 L 483 505 L 454 546 L 444 556 L 425 565 L 414 567 L 366 567 L 365 568 L 354 568 L 353 569 L 314 574 L 230 592 L 207 599 L 193 607 L 183 620 Q 183 624 186 624 L 217 620 L 241 615 L 264 613 L 271 611 L 302 608 L 310 606 L 319 606 L 329 604 L 337 604 L 338 603 L 349 603 L 358 601 L 380 600 L 381 599 L 411 598 L 412 597 Q 423 596 430 599 L 436 609 L 435 621 L 428 636 Q 423 642 414 644 L 363 646 L 354 648 L 331 649 L 330 650 L 313 650 L 312 651 L 301 651 L 300 652 L 276 654 L 275 655 L 245 657 L 230 660 L 193 664 L 188 666 L 174 668 L 167 672 Q 162 675 163 684 Q 168 688 176 690 L 254 689 L 255 688 L 315 688 L 316 687 L 318 688 L 320 688 L 323 687 L 325 688 L 340 688 L 341 687 L 342 688 L 394 688 L 402 691 L 406 696 L 409 702 Q 408 706 410 708 L 409 718 Q 406 722 406 729 L 401 738 L 395 743 L 387 745 L 305 749 L 294 751 L 283 751 L 280 753 L 283 757 L 286 758 L 300 759 L 316 763 L 321 763 L 331 766 L 345 767 L 372 772 L 379 772 L 387 774 L 392 777 L 396 782 L 399 790 L 399 814 L 398 816 L 391 821 L 376 821 L 375 820 L 358 819 L 350 817 L 325 815 L 324 814 L 288 811 L 279 809 L 271 809 L 270 808 L 249 807 L 241 805 L 232 805 L 231 804 L 220 804 L 219 803 L 206 805 Q 203 807 204 812 L 218 817 L 223 817 L 237 821 L 253 823 L 257 825 L 272 828 L 277 828 L 286 831 L 303 833 Q 315 838 331 839 L 339 842 L 356 844 L 364 847 L 384 850 L 398 854 L 406 860 Q 408 859 407 862 L 409 862 L 421 879 Q 430 889 442 896 L 456 902 L 467 904 L 486 904 L 497 902 L 512 897 L 534 886 L 574 857 L 643 798 Q 664 782 689 769 L 705 762 L 732 754 L 752 750 L 763 750 L 774 748 L 814 749 L 815 750 L 829 751 L 845 755 Q 881 766 906 789 Q 931 813 954 840 Q 956 839 955 842 Q 969 857 987 868 L 1008 876 Q 1019 878 1027 875 Q 1041 871 1050 863 Q 1062 852 1071 838 L 1078 825 L 1088 800 Q 1089 789 1093 782 L 1095 767 L 1098 756 L 1099 737 L 1100 736 L 1100 723 L 1101 722 L 1101 691 L 1100 690 L 1099 663 L 1095 641 L 1095 635 L 1088 607 L 1088 603 L 1085 597 L 1083 586 L 1078 572 L 1068 548 Q 1054 517 1034 494 Q 1016 472 991 458 L 973 450 L 946 444 L 918 444 L 917 445 L 908 445 L 886 450 L 866 458 Q 852 460 842 465 L 823 467 L 822 468 L 813 468 L 812 469 L 788 469 L 787 468 L 778 468 L 756 464 L 739 458 L 703 440 L 683 433 L 666 429 L 651 428 L 650 427 L 620 427 Z M 273 518 L 222 533 L 183 548 Q 177 552 176 560 L 177 566 L 182 568 L 205 563 L 236 554 L 245 553 L 261 548 L 269 547 L 281 542 L 287 532 Q 288 525 285 522 Q 282 516 273 518 Z M 158 731 L 151 733 L 146 740 L 145 745 L 146 754 L 153 759 L 197 763 L 204 765 L 226 766 L 227 767 L 237 766 Q 243 762 245 755 Q 247 744 243 739 L 237 733 L 161 732 L 158 731 Z " /><path fill="rgb(0,0,0)" stroke="rgb(0,0,0)" stroke-width="1" opacity="0" d="M 636.5 471 L 661.5 472 L 677.5 475 L 702.5 483 L 737.5 499 Q 746.3 499.7 751.5 504 L 755.5 504 L 769.5 508 L 780.5 509 L 781.5 510 L 817.5 510 L 852.5 503 L 890.5 490 Q 901.4 488.9 909.5 485 L 927.5 483 L 928.5 482 L 952.5 482 L 953.5 483 L 966.5 484 L 985.5 490 L 1003.5 499 L 1010.5 505 L 1014 506 Q 1012.9 508.7 1015.5 508 L 1030 521.5 L 1042 536.5 L 1053 554.5 L 1058 564.5 L 1060 572.5 L 1063 576.5 L 1070 602.5 L 1072 605.5 L 1072 609.5 L 1077 628.5 L 1077 635.5 L 1080 649.5 L 1081 668.5 L 1082 669.5 L 1082 715.5 L 1081 716.5 L 1079 738.5 L 1077 744.5 L 1077 753.5 L 1068 785.5 L 1054 814.5 L 1038.5 832 L 1032.5 836 L 1019.5 841 L 1007.5 841 Q 994.6 837.9 985.5 831 L 970 815.5 L 935 770.5 L 914.5 750 Q 890.6 727.9 855.5 717 L 823.5 711 L 780.5 711 L 779.5 712 L 772.5 712 L 766.5 714 L 755.5 715 L 734.5 720 L 696.5 734 L 667.5 749 L 639.5 767 L 573.5 818 L 538.5 841 L 514.5 851 L 502.5 852 L 501.5 853 L 489.5 853 L 479.5 851 L 469.5 846 L 460 837.5 L 451 822.5 L 446 806.5 L 446 798.5 L 445 797.5 L 445 770.5 L 446 769.5 L 447 751.5 L 449 746.5 L 451 728.5 Q 455.8 716.8 457 701.5 L 460 694.5 L 462 683.5 L 466 673.5 L 474 643.5 L 489 603.5 L 506 567.5 L 517 548.5 Q 532.9 523.9 554.5 505 L 573.5 491 L 597.5 479 L 614.5 474 L 625.5 472 L 635.5 472 L 636.5 471 Z M 953 530 L 945 532 L 938 536 Q 928 544 924 557 Q 923 568 925 576 L 932 586 Q 939 594 951 597 Q 959 598 965 596 L 978 588 Q 984 581 987 570 Q 988 553 982 545 Q 976 535 965 531 L 953 530 Z M 637 538 L 630 541 Q 622 546 620 556 L 620 579 L 619 580 L 619 595 L 580 595 L 569 600 L 562 610 L 559 622 L 559 635 L 565 645 L 573 649 L 578 650 L 615 650 L 616 652 L 614 674 L 613 675 L 613 693 L 617 700 L 629 706 L 649 706 L 660 700 Q 665 694 667 685 L 669 655 L 670 651 L 673 650 L 711 650 L 717 647 L 724 640 L 728 622 L 728 614 L 725 605 Q 720 597 711 595 L 675 595 L 673 594 L 673 577 L 674 576 L 674 556 L 669 545 L 660 538 L 637 538 Z M 893 592 L 878 598 L 869 608 L 864 620 L 864 634 L 870 646 Q 877 655 890 658 L 903 658 L 916 652 L 925 641 L 928 633 L 928 619 L 921 604 Q 912 592 893 592 Z M 1013 592 L 997 597 Q 986 605 982 621 L 982 630 L 984 639 L 992 650 Q 998 656 1009 658 L 1019 658 L 1033 651 Q 1042 644 1044 631 L 1044 621 L 1039 608 L 1035 603 Q 1028 593 1013 592 Z M 950 653 L 938 658 Q 928 666 924 679 L 924 694 L 929 705 Q 936 715 950 718 L 962 718 L 974 713 L 984 701 L 987 690 L 986 676 L 980 665 Q 974 657 964 653 L 950 653 Z " /><path fill="rgb(85,188,75)" stroke="rgb(85,188,75)" stroke-width="1" opacity="0.9803921568627451" d="M 534.5 378 L 543.5 379 L 549 383.5 Q 551.6 386.4 551 392.5 Q 549.5 401 543.5 405 L 540.5 407 L 525.5 410 L 522.5 412 L 508.5 414 L 501.5 417 L 488.5 419 L 481.5 422 L 461.5 426 L 458.5 428 L 442.5 431 L 427.5 436 L 419.5 437 L 417.5 439 L 401.5 442 L 395.5 445 L 393.5 445 L 332.5 461 L 331 460.5 L 330.5 462 L 330 460.5 L 333 459.5 L 333.5 457 L 334.5 460 L 336 456.5 L 336 454.5 L 337 450.5 L 335.5 448 L 337 448.5 L 338 443.5 L 336 444.5 L 335.5 447 L 334.5 445 L 333.5 448 L 331.5 445 Q 333 447.5 334.5 444 L 337.5 442 L 339 442.5 L 339.5 441 L 340 442.5 Q 337.4 443.9 338 448.5 L 339 448.5 L 340.5 444 L 341.5 446 L 342 443.5 L 341 441.5 L 344.5 439 L 378.5 426 L 433.5 408 L 436.5 406 L 462.5 399 L 471.5 395 Q 485.7 393.2 496.5 388 L 504.5 387 L 507.5 385 L 523.5 382 L 534.5 378 Z M 344 441 L 344 443 L 346 442 L 344 441 Z M 344 443 L 343 446 L 344 446 L 344 443 Z M 341 446 L 340 449 L 341 449 L 341 446 Z M 338 452 L 337 455 L 338 455 L 338 452 Z " /><path fill="rgb(85,188,75)" stroke="rgb(85,188,75)" stroke-width="1" opacity="0.9803921568627451" d="M 630.5 427 L 651.5 428 L 679.5 433 L 706.5 443 L 735.5 458 L 760.5 466 L 775.5 469 L 784.5 469 L 785.5 470 L 813.5 470 L 814.5 469 L 830.5 468 L 852.5 463 L 855.5 461 L 897.5 448 L 915.5 446 L 916.5 445 L 930.5 445 L 931.5 444 L 934.5 445 L 952.5 446 L 969.5 450 L 971.5 452 L 982.5 455 L 1000.5 465 L 1024 484 L 1024 486 Q 1026.7 484.9 1026 487.5 Q 1045.5 507 1059 532.5 L 1069 552.5 L 1084 593.5 L 1094 635.5 L 1095 648.5 L 1097 656.5 L 1097 665.5 L 1099 676.5 L 1099 692.5 L 1100 693.5 L 1100 716.5 L 1099 717.5 L 1099 733.5 L 1098 734.5 L 1098 743.5 L 1097 744.5 L 1095 765.5 L 1089 791.5 L 1084 806.5 L 1078 821.5 L 1067 841.5 L 1047.5 863 Q 1035.2 875.2 1010.5 875 L 997.5 872 L 985.5 866 Q 966.9 853.1 952 836.5 Q 931.5 811 907.5 789 Q 887.2 770.8 860.5 759 L 846.5 754 L 825.5 749 L 818.5 749 L 809.5 747 L 795.5 747 L 794.5 746 L 792.5 747 L 789.5 746 L 756.5 748 L 733.5 752 L 708.5 759 L 685.5 769 Q 660.7 782.2 639.5 799 L 576.5 853 Q 556 870.5 532.5 885 L 517.5 893 L 498.5 900 L 483.5 903 L 468.5 903 L 453.5 900 L 442.5 895 L 428 885 Q 418.3 869.3 404.5 857 L 395.5 852 L 379.5 849 L 375.5 847 L 373.5 847 L 331.5 839 L 322.5 836 L 312.5 835 L 298.5 831 L 282.5 829 L 269.5 825 L 265.5 825 L 263.5 823 L 260.5 824 Q 259 820.5 257.5 823 L 255 821.5 L 256.5 822 L 258 821.5 L 256.5 817 Q 257.8 819.3 259 816.5 L 259 814.5 L 255.5 811 L 254 810.5 L 255.5 810 L 257.5 810 L 259.5 809 L 266.5 811 L 270.5 811 L 280.5 811 L 291.5 813 L 293.5 813 L 302.5 813 L 303.5 814 L 319.5 815 L 328.5 817 L 347.5 818 L 362.5 821 L 388.5 823 Q 395.9 821.9 399 816.5 L 400 814.5 L 400 790.5 L 399 785.5 L 395 778 L 393 778 Q 394.1 775.3 391.5 776 L 383.5 772 L 377.5 772 L 371.5 770 L 365.5 770 L 327.5 763 L 321.5 763 L 307.5 759 L 293.5 758 L 288 756 Q 289.1 753.3 286.5 754 L 286.5 753 L 310.5 751 L 311.5 750 L 323.5 750 L 325.5 749 L 327.5 749 L 390.5 746 Q 399.3 742.8 404 735.5 Q 411.2 723.2 410 702.5 Q 407.9 695.1 402.5 691 L 393.5 687 L 321.5 687 L 320.5 686 L 318.5 687 L 316.5 687 L 223.5 687 L 222.5 686 L 221 686.5 L 222 684.5 L 220 684.5 L 220.5 683 L 219 682.5 L 220.5 682 L 222 682.5 L 223 680.5 L 221.5 678 L 223 678.5 L 225 675.5 L 225 673.5 L 224.5 672 L 222 673.5 Q 225.1 671.8 223.5 670 L 226 671.5 L 225 666.5 L 226 664.5 L 224.5 665 L 222 663.5 L 223.5 662 L 228.5 662 L 235.5 660 L 237.5 660 L 258.5 658 L 259.5 657 L 267.5 657 L 268.5 656 L 277.5 656 L 286.5 654 L 296.5 654 L 305.5 652 L 317.5 652 L 318.5 651 L 342.5 650 L 343.5 649 L 357.5 649 L 358.5 648 L 371.5 648 L 372.5 647 Q 380.7 648.7 384.5 646 L 386.5 647 L 387.5 646 L 404.5 646 L 405.5 645 L 407.5 645 L 417.5 644 Q 425.3 640.8 430 634.5 L 436 620.5 L 437 607.5 L 433 600 L 423.5 596 L 414.5 596 L 413.5 597 L 380.5 598 L 379.5 599 L 367.5 599 L 366.5 600 L 334.5 602 L 325.5 604 L 304.5 605 L 303.5 606 L 280.5 608 L 273.5 610 L 242.5 613 L 240 614 L 237 609.5 L 241 611.5 L 239 607.5 L 241 607.5 L 240 602.5 L 243 601.5 L 242 598.5 L 243 598.5 L 243.5 600 L 245 598.5 L 243.5 596 L 245 596.5 L 246 592.5 L 244.5 592 L 243 592.5 L 249.5 589 L 266.5 586 L 270.5 584 L 275.5 584 L 280.5 582 L 285.5 582 L 290.5 580 L 316.5 576 L 322.5 574 L 328.5 574 L 334.5 572 L 341.5 572 L 342.5 571 L 354.5 570 L 355.5 569 L 364.5 569 L 365.5 568 L 409.5 568 L 410.5 567 L 412.5 568 L 413.5 567 L 424.5 566 L 437.5 561 L 455 545.5 L 480 509.5 L 495.5 492 Q 498.1 492.8 497 489.5 L 498.5 487 L 482.5 490 L 474.5 490 L 457.5 494 L 437.5 496 L 421.5 500 L 402.5 502 L 397.5 504 L 395.5 504 L 367.5 508 L 339.5 514 L 330.5 514 L 323.5 516 L 324.5 514 L 333.5 509 L 338.5 508 L 347.5 503 L 380.5 490 L 383.5 490 L 421.5 476 L 447.5 469 L 453.5 466 L 486.5 458 L 493.5 455 L 509.5 452 L 516.5 449 L 520.5 449 L 545.5 442 L 554.5 441 L 558.5 439 L 582.5 435 L 602.5 430 L 616.5 429 L 617.5 428 L 629.5 428 L 630.5 427 Z M 637 470 L 636 471 L 615 473 L 596 479 L 574 490 L 558 502 Q 555 501 556 504 L 546 512 L 544 515 L 540 517 L 525 536 L 511 557 L 501 575 L 485 611 L 469 656 L 461 687 L 459 690 L 456 706 L 451 723 L 450 735 L 448 739 L 446 759 L 445 760 L 445 770 L 444 771 L 444 799 L 445 800 L 446 812 Q 450 825 457 836 Q 466 850 487 854 L 505 854 L 515 852 L 534 845 L 543 840 L 584 812 Q 612 787 645 765 L 667 751 L 704 732 L 723 725 L 752 717 L 768 714 L 785 713 L 786 712 L 819 712 L 820 713 L 842 715 L 861 720 Q 890 730 912 749 L 934 772 L 970 818 L 988 834 L 1007 842 Q 1017 843 1024 841 Q 1034 837 1042 831 L 1054 817 L 1067 792 L 1078 754 L 1081 728 L 1082 727 L 1082 716 L 1083 715 L 1083 668 L 1082 667 L 1082 657 L 1081 656 L 1078 626 L 1075 617 L 1073 604 L 1064 576 L 1052 551 Q 1041 530 1026 515 Q 1023 516 1024 513 L 1001 496 L 991 491 L 974 485 L 953 481 L 930 481 L 929 482 L 921 482 Q 914 485 905 485 L 898 488 L 884 491 L 860 500 L 837 506 L 825 507 L 818 509 L 782 509 L 775 507 L 764 506 L 738 498 L 700 481 L 678 474 L 661 472 L 660 471 L 652 471 L 651 470 L 637 470 Z M 247 593 L 246 597 L 247 597 L 247 593 Z M 243 603 L 242 608 L 243 608 L 243 603 Z M 227 666 L 226 670 L 227 670 L 227 666 Z M 225 677 L 223 680 L 225 681 L 225 677 Z M 227 677 L 226 680 L 227 680 L 227 677 Z M 260 810 L 257 812 Q 259 815 260 812 L 260 810 Z M 262 811 L 263 813 Q 264 810 262 811 Z M 261 812 L 259 816 Q 262 816 261 821 L 262 821 L 261 815 Q 263 813 261 812 Z M 263 814 L 263 821 L 264 821 Q 265 815 263 814 Z M 260 817 L 258 821 L 261 823 L 260 817 Z " /><path fill="rgb(85,188,75)" stroke="rgb(85,188,75)" stroke-width="1" opacity="0.9803921568627451" d="M 333.5 449 L 335 451.5 L 334.5 454 Q 331.8 452.8 334 451.5 L 333.5 449 Z " /><path fill="rgb(85,188,75)" stroke="rgb(85,188,75)" stroke-width="1" opacity="0.9803921568627451" d="M 331.5 453 L 333.5 456 L 331.5 453 Z " /><path fill="rgb(85,188,75)" stroke="rgb(85,188,75)" stroke-width="1" opacity="0.9803921568627451" d="M 327.5 455 L 326.5 457 L 327.5 455 Z " /><path fill="rgb(85,188,75)" stroke="rgb(85,188,75)" stroke-width="1" opacity="0.9803921568627451" d="M 330.5 455 L 332 457.5 L 331 457.5 L 330.5 455 Z " /><path fill="rgb(85,188,75)" stroke="rgb(85,188,75)" stroke-width="1" opacity="0.9803921568627451" d="M 329.5 457 L 328.5 459 L 329.5 457 Z " /><path fill="rgb(85,188,75)" stroke="rgb(85,188,75)" stroke-width="1" opacity="0.9803921568627451" d="M 326.5 461 L 327.5 463 L 326.5 461 Z " /><path fill="rgb(85,188,75)" stroke="rgb(85,188,75)" stroke-width="1" opacity="0.9803921568627451" d="M 272.5 519 Q 282 517 284 522.5 Q 287.2 524.8 286 531.5 L 280.5 541 L 272.5 545 L 247.5 550 L 239.5 553 L 222.5 556 L 197.5 563 L 196.5 561 L 195.5 563 L 195 561.5 L 197 559.5 L 195.5 557 L 197 557.5 L 195 554.5 L 198 553.5 L 194 551.5 L 196 551.5 L 195 547.5 L 197 548.5 L 197.5 550 L 198 547.5 L 193 545.5 L 214.5 537 L 272.5 519 Z " /><path fill="rgb(85,188,75)" stroke="rgb(85,188,75)" stroke-width="1" opacity="0.9803921568627451" d="M 949.5 532 L 965.5 533 L 977 540 L 985 553.5 L 986 569.5 Q 983 583 973.5 590 L 966.5 594 L 955.5 596 Q 954 593.5 948.5 595 L 941.5 592 L 931 582.5 L 926 573.5 L 925 558.5 Q 928.1 544.1 938.5 537 L 949.5 532 Z " /><path fill="rgb(85,188,75)" stroke="rgb(85,188,75)" stroke-width="1" opacity="0.9803921568627451" d="M 637.5 539 L 655.5 539 L 660.5 540 L 670 547.5 L 673 554.5 L 673 577.5 L 672 578.5 L 672 593.5 L 671 594.5 L 672.5 596 L 711.5 596 L 722 602.5 Q 728.5 609.5 726 625.5 L 724 636.5 L 717.5 645 L 709.5 649 L 669 649 L 665 688.5 Q 662.5 696.5 656.5 701 Q 647.4 707.4 629.5 705 Q 621 703.5 617 697.5 Q 611.8 691.7 614 678.5 L 615 675.5 L 617 649 L 575.5 649 Q 566.6 647.4 563 640.5 L 560 630.5 L 561 629.5 L 562 611.5 Q 564.6 604.1 570.5 600 L 578.5 596 L 620 596 L 620 580.5 L 621 579.5 L 621 554.5 Q 623.1 547.1 628.5 543 L 637.5 539 Z " /><path fill="rgb(85,188,75)" stroke="rgb(85,188,75)" stroke-width="1" opacity="0.9803921568627451" d="M 193.5 562 L 192.5 564 L 193.5 562 Z " /><path fill="rgb(85,188,75)" stroke="rgb(85,188,75)" stroke-width="1" opacity="0.9803921568627451" d="M 889.5 594 Q 902.2 592.3 909.5 596 L 920 604.5 Q 928.3 612.7 927 630.5 Q 923.9 644.9 913.5 652 L 905.5 656 L 889.5 657 L 878.5 652 L 870 643.5 Q 863.9 636.1 865 621.5 Q 867.2 608.2 875.5 601 Q 880.5 595.5 889.5 594 Z " /><path fill="rgb(85,188,75)" stroke="rgb(85,188,75)" stroke-width="1" opacity="0.9803921568627451" d="M 1008.5 594 L 1017.5 594 L 1024.5 596 L 1035 604.5 Q 1044.1 612.9 1042 632.5 Q 1039.3 644.8 1030.5 651 Q 1023.7 657.2 1010.5 657 Q 997.5 655 991 646.5 L 985 637.5 L 983 621.5 Q 985.9 606.4 996.5 599 L 1008.5 594 Z " /><path fill="rgb(85,188,75)" stroke="rgb(85,188,75)" stroke-width="1" opacity="0.9803921568627451" d="M 238.5 604 L 239.5 606 L 238.5 604 Z " /><path fill="rgb(85,188,75)" stroke="rgb(85,188,75)" stroke-width="1" opacity="0.9803921568627451" d="M 237.5 612 L 238.5 614 L 237.5 612 Z " /><path fill="rgb(85,188,75)" stroke="rgb(85,188,75)" stroke-width="1" opacity="0.9803921568627451" d="M 949.5 654 Q 961 652.5 967.5 656 L 980 666.5 Q 986.8 674.2 986 689.5 Q 983.1 704.6 972.5 712 Q 965.4 717.9 951.5 717 Q 939.8 714.7 933 707.5 Q 924 699 925 680.5 Q 928.1 666.1 938.5 659 L 949.5 654 Z " /><path fill="rgb(85,188,75)" stroke="rgb(85,188,75)" stroke-width="1" opacity="0.9803921568627451" d="M 220.5 676 L 219.5 678 L 220.5 676 Z " /><path fill="rgb(85,188,75)" stroke="rgb(85,188,75)" stroke-width="1" opacity="0.9803921568627451" d="M 218.5 684 L 217.5 686 L 218.5 684 Z " /><path fill="rgb(85,188,75)" stroke="rgb(85,188,75)" stroke-width="1" opacity="0.9803921568627451" d="M 171.5 733 L 173.5 734 L 179.5 734 L 184.5 733 L 186.5 733 L 188.5 734 L 223.5 734 L 224.5 735 L 236.5 735 L 241 738.5 Q 245.7 743.3 244 754.5 L 236.5 764 Q 231.4 766.4 222.5 765 L 221.5 764 L 210.5 764 L 209.5 763 L 199.5 763 L 183.5 760 L 166.5 759 L 165 757.5 L 166.5 758 L 168 757.5 L 166 753.5 L 165 750.5 L 167 748.5 L 167 742.5 L 166 740.5 L 169 740 L 168.5 738 L 167 738.5 L 167.5 736 L 170 735.5 L 166 734.5 L 171.5 733 Z M 167 751 L 168 754 L 169 752 L 167 751 Z M 168 755 L 169 757 Q 170 754 168 755 Z " /></svg>